<svg
  viewBox="0 0 50 53"
  fill="none"
  xmlns="http://www.w3.org/2000/svg"
  {...props}
>
  <path
    d="M16.6968 21.019C23.2057 17.7002 28.2996 12.0683 31.2239 5.02846C29.3373 2.91651 26.8846 1.40797 24.2433 0.502846L22.8283 0C22.734 0.201138 22.6397 0.502858 22.6397 0.703997C20.3757 7.54271 15.7534 13.074 9.52754 16.1917C5.18827 18.4042 1.98097 22.4269 0.47166 27.2543L0 28.7628C0.188664 28.8634 0.471664 28.9639 0.660328 28.9639C2.45264 29.6679 4.24494 30.573 5.94292 31.6793C8.30122 27.1537 12.0745 23.3321 16.6968 21.019Z"
    fill="currentColor"
  />
  <path
    d="M44.053 21.4213C40.5627 27.0531 35.7518 31.5788 29.8089 34.5958C24.998 37.0095 21.319 41.5351 19.621 46.9659L19.1494 48.6755C20.9417 50.3852 23.1113 51.6926 25.4696 52.4972L26.8846 53C26.9789 52.7989 27.0733 52.4972 27.0733 52.296C29.3372 45.4573 33.9595 39.926 40.1854 36.8084C44.5247 34.5959 47.8263 30.5731 49.2413 25.7458L49.7129 24.2372C47.732 23.6338 45.8453 22.6281 44.053 21.4213Z"
    fill="currentColor"
  />
  <path
    d="M15.3761 43.4459C17.7344 37.4118 22.0737 32.4839 27.6393 29.6679C32.7332 27.0531 36.9781 23.0304 39.9024 18.1025C37.7328 15.89 35.9405 13.3757 34.6198 10.3586C31.1296 17.1974 25.6583 22.7287 18.9607 26.148C15.0931 28.0588 11.9802 31.3776 10.0935 35.4004C12.1688 37.5124 13.8668 40.1271 15.1875 43.0436C15.1875 43.0436 15.2818 43.2448 15.3761 43.4459Z"
    fill="currentColor"
  />
</svg>